<?xml version="1.0" encoding="UTF-8" standalone="no"?>
<svg
   width="1024"
   height="1024"
   viewBox="0 0 1024 1024"
   version="1.1"
   id="svg90"
   xmlns="http://www.w3.org/2000/svg"
   xmlns:svg="http://www.w3.org/2000/svg">
  <defs
     id="defs44">
    <radialGradient
       id="bgGrad"
       cx="35%"
       cy="30%"
       r="80%">
      <stop
         offset="0%"
         stop-color="#4b1aa6"
         id="stop2" />
      <stop
         offset="45%"
         stop-color="#2b0a6f"
         id="stop4" />
      <stop
         offset="100%"
         stop-color="#140236"
         id="stop6" />
    </radialGradient>
    <linearGradient
       id="ringGrad"
       x1="0"
       y1="0"
       x2="1"
       y2="1">
      <stop
         offset="0%"
         stop-color="#b486ff"
         id="stop9" />
      <stop
         offset="35%"
         stop-color="#7a2fe0"
         id="stop11" />
      <stop
         offset="100%"
         stop-color="#efe6ff"
         id="stop13" />
    </linearGradient>
    <linearGradient
       id="monoGrad"
       x1="0"
       y1="0"
       x2="1"
       y2="1">
      <stop
         offset="0%"
         stop-color="#f2e9ff"
         id="stop16" />
      <stop
         offset="22%"
         stop-color="#d9b7ff"
         id="stop18" />
      <stop
         offset="55%"
         stop-color="#a45bff"
         id="stop20" />
      <stop
         offset="100%"
         stop-color="#ffffff"
         id="stop22" />
    </linearGradient>
    <linearGradient
       id="swooshGrad"
       x1="0"
       y1="0"
       x2="1"
       y2="0">
      <stop
         offset="0%"
         stop-color="#ffffff"
         stop-opacity="0.95"
         id="stop25" />
      <stop
         offset="35%"
         stop-color="#d9b7ff"
         stop-opacity="0.95"
         id="stop27" />
      <stop
         offset="65%"
         stop-color="#a45bff"
         stop-opacity="0.95"
         id="stop29" />
      <stop
         offset="100%"
         stop-color="#ffffff"
         stop-opacity="0.95"
         id="stop31" />
    </linearGradient>
    <filter
       id="softGlow"
       x="-0.043492063"
       y="-0.1096"
       width="1.0869841"
       height="1.2192">
      <feGaussianBlur
         stdDeviation="6"
         result="blur"
         id="feGaussianBlur34" />
      <feMerge
         id="feMerge40">
        <feMergeNode
           in="blur"
           id="feMergeNode36" />
        <feMergeNode
           in="SourceGraphic"
           id="feMergeNode38" />
      </feMerge>
    </filter>
    <filter
       id="shadow"
       x="-0.0125"
       y="-0.0125"
       width="1.025"
       height="1.025">
      <feDropShadow
         dx="0"
         dy="12"
         stdDeviation="12"
         flood-color="#000000"
         flood-opacity="0.28" />
    </filter>
  </defs>
  <!-- Outer badge -->
  <g
     filter="url(#shadow)"
     id="g52">
    <path
       id="circle46"
       style="fill:url(#bgGrad)"
       d="M 922,512 A 410,410 0 0 1 512,922 410,410 0 0 1 102,512 410,410 0 0 1 512,102 410,410 0 0 1 922,512 Z" />
    <!-- Ring strokes -->
    <path
       id="circle48"
       style="opacity:0.98;fill:none;stroke:url(#ringGrad);stroke-width:22"
       d="M 952,512 A 440,440 0 0 1 512,952 440,440 0 0 1 72,512 440,440 0 0 1 512,72 440,440 0 0 1 952,512 Z" />
    <path
       id="circle50"
       style="opacity:0.18;fill:none;stroke:#ffffff;stroke-width:10"
       d="M 904,512 A 392,392 0 0 1 512,904 392,392 0 0 1 120,512 392,392 0 0 1 512,120 392,392 0 0 1 904,512 Z" />
  </g>
  <!-- Subtle stars -->
  <g
     opacity="0.55"
     id="g66">
    <path
       id="circle54"
       style="fill:#ffffff"
       d="m 713.2,330 a 3.2,3.2 0 0 1 -3.2,3.2 3.2,3.2 0 0 1 -3.2,-3.2 3.2,3.2 0 0 1 3.2,-3.2 3.2,3.2 0 0 1 3.2,3.2 z" />
    <path
       id="circle56"
       style="opacity:0.9;fill:#ffffff"
       d="m 652.5,420 a 2.5,2.5 0 0 1 -2.5,2.5 2.5,2.5 0 0 1 -2.5,-2.5 2.5,2.5 0 0 1 2.5,-2.5 2.5,2.5 0 0 1 2.5,2.5 z" />
    <path
       id="circle58"
       style="opacity:0.75;fill:#ffffff"
       d="m 422.2,690 a 2.2,2.2 0 0 1 -2.2,2.2 2.2,2.2 0 0 1 -2.2,-2.2 2.2,2.2 0 0 1 2.2,-2.2 2.2,2.2 0 0 1 2.2,2.2 z" />
    <path
       id="circle60"
       style="opacity:0.65;fill:#ffffff"
       d="m 331.9,530 a 1.9,1.9 0 0 1 -1.9,1.9 1.9,1.9 0 0 1 -1.9,-1.9 1.9,1.9 0 0 1 1.9,-1.9 1.9,1.9 0 0 1 1.9,1.9 z" />
    <path
       id="circle62"
       style="opacity:0.55;fill:#ffffff"
       d="m 561.7,760 a 1.7,1.7 0 0 1 -1.7,1.7 1.7,1.7 0 0 1 -1.7,-1.7 1.7,1.7 0 0 1 1.7,-1.7 1.7,1.7 0 0 1 1.7,1.7 z" />
    <path
       id="circle64"
       style="opacity:0.6;fill:#ffffff"
       d="m 791.6,520 a 1.6,1.6 0 0 1 -1.6,1.6 1.6,1.6 0 0 1 -1.6,-1.6 1.6,1.6 0 0 1 1.6,-1.6 1.6,1.6 0 0 1 1.6,1.6 z" />
  </g>
  <!-- Pixel squares (top-right) -->
  <g
     opacity="0.95"
     id="g78">
    <path
       id="rect68"
       style="opacity:0.96;fill:#ffffff"
       d="m 795,190 h 32 v 32 h -32 z" />
    <path
       id="rect70"
       style="opacity:0.95;fill:#7a2fe0"
       d="m 837,176 h 30 v 30 h -30 z" />
    <path
       id="rect72"
       style="opacity:0.95;fill:#b486ff"
       d="m 878,200 h 24 v 24 h -24 z" />
    <path
       id="rect74"
       style="opacity:0.95;fill:#7a2fe0"
       d="m 864,240 h 28 v 28 h -28 z" />
    <path
       id="rect76"
       style="opacity:0.95;fill:#b486ff"
       d="m 910,246 h 20 v 20 h -20 z" />
  </g>
  <!-- Monogram -->
  <g
     filter="url(#softGlow)"
     id="g84">
    <!-- back highlight stroke -->
    <g
       aria-label="RK"
       id="text80"
       style="font-style:italic;font-weight:700;font-size:430px;font-family:'DejaVu Serif';letter-spacing:-12;text-anchor:middle;fill:url(#monoGrad);stroke:#f6f0ff;stroke-width:18;paint-order:stroke fill">
      <path
         d="m 380.26562,466.93848 q 18.05665,2.72949 28.97461,12.38769 10.91797,9.6582 16.79688,27.92481 l 28.76465,87.34375 h 32.12402 L 482.09668,620 H 379.00586 l -31.49414,-94.69238 q -8.81836,-29.39453 -17.42676,-37.37305 -8.6084,-8.18848 -26.66504,-8.18848 H 290.6123 l -22.46582,114.84864 h 40.3125 L 303.62988,620 h -161.25 l 4.8291,-25.40527 h 40.10254 l 51.23047,-262.66114 h -40.10254 l 4.8291,-25.40527 h 178.88672 q 54.58985,0 79.99512,22.0459 25.40527,21.83594 17.63672,62.14844 -6.29883,32.7539 -31.07422,51.86035 -24.77539,18.89648 -68.44727,24.35547 z m -84.82421,-12.3877 h 27.50488 q 29.39453,0 48.29101,-15.95703 19.10645,-15.95703 24.7754,-45.56152 5.66894,-29.6045 -7.13868,-45.35157 -12.59765,-15.74707 -41.99218,-15.74707 h -27.50489 z"
         id="path108" />
      <path
         d="m 487.7334,620 4.8291,-25.40527 h 40.10254 l 51.23047,-262.66114 h -40.10254 l 4.8291,-25.40527 h 161.25 l -4.8291,25.40527 h -40.3125 L 642.47461,446.3623 797.63574,331.93359 h -33.59375 l 4.8291,-25.40527 h 116.94825 l -4.82911,25.40527 H 839.20801 L 707.77246,428.72559 828.5,594.59473 h 30.86426 L 854.53516,620 H 748.29492 L 638.27539,467.77832 613.5,594.59473 h 40.3125 L 648.9834,620 Z"
         id="path110" />
    </g>
    <!-- front fill (crisper) -->
    <g
       aria-label="RK"
       id="text82"
       style="font-style:italic;font-weight:700;font-size:430px;font-family:'DejaVu Serif';letter-spacing:-12;text-anchor:middle;opacity:0.98;fill:url(#monoGrad);stroke:#3a0a7a;stroke-width:4;paint-order:stroke fill">
      <path
         d="m 380.26562,466.93848 q 18.05665,2.72949 28.97461,12.38769 10.91797,9.6582 16.79688,27.92481 l 28.76465,87.34375 h 32.12402 L 482.09668,620 H 379.00586 l -31.49414,-94.69238 q -8.81836,-29.39453 -17.42676,-37.37305 -8.6084,-8.18848 -26.66504,-8.18848 H 290.6123 l -22.46582,114.84864 h 40.3125 L 303.62988,620 h -161.25 l 4.8291,-25.40527 h 40.10254 l 51.23047,-262.66114 h -40.10254 l 4.8291,-25.40527 h 178.88672 q 54.58985,0 79.99512,22.0459 25.40527,21.83594 17.63672,62.14844 -6.29883,32.7539 -31.07422,51.86035 -24.77539,18.89648 -68.44727,24.35547 z m -84.82421,-12.3877 h 27.50488 q 29.39453,0 48.29101,-15.95703 19.10645,-15.95703 24.7754,-45.56152 5.66894,-29.6045 -7.13868,-45.35157 -12.59765,-15.74707 -41.99218,-15.74707 h -27.50489 z"
         id="path113" />
      <path
         d="m 487.7334,620 4.8291,-25.40527 h 40.10254 l 51.23047,-262.66114 h -40.10254 l 4.8291,-25.40527 h 161.25 l -4.8291,25.40527 h -40.3125 L 642.47461,446.3623 797.63574,331.93359 h -33.59375 l 4.8291,-25.40527 h 116.94825 l -4.82911,25.40527 H 839.20801 L 707.77246,428.72559 828.5,594.59473 h 30.86426 L 854.53516,620 H 748.29492 L 638.27539,467.77832 613.5,594.59473 h 40.3125 L 648.9834,620 Z"
         id="path115" />
    </g>
  </g>
  <!-- Swoosh across letters -->
  <path
     d="M 240 640            C 360 560, 475 525, 580 510            C 700 492, 785 448, 870 390"
     fill="none"
     stroke="url(#swooshGrad)"
     stroke-width="26"
     stroke-linecap="round"
     stroke-linejoin="round"
     filter="url(#softGlow)"
     id="path86" />
  <!-- Swoosh thin highlight -->
  <path
     d="M 245 656            C 365 575, 478 543, 585 528            C 705 512, 790 470, 875 415"
     fill="none"
     stroke="#ffffff"
     stroke-width="6"
     stroke-linecap="round"
     opacity="0.35"
     id="path88" />
</svg>
